<svg id="Layer_1" data-name="Layer 1" xmlns="http://www.w3.org/2000/svg" viewBox="0 0 126.04 60.72"><defs><style>.cls-1{fill:#f4c90c;}.cls-2{fill:#ccc;}</style></defs><polygon class="cls-1" points="0.05 0.1 0.05 30.61 7.77 21.95 7.77 0.1 0.05 0.1"/><polygon class="cls-1" points="30.33 0.1 0 41.56 8.71 41.56 39 0.1 30.33 0.1"/><polygon class="cls-1" points="20.34 32.68 24.2 27.55 38.95 41.56 29.64 41.45 20.34 32.68"/><rect class="cls-1" x="47.89" y="0.1" width="7.39" height="41.46"/><rect class="cls-1" x="59.78" y="0.1" width="16.39" height="7.4"/><rect class="cls-1" x="59.78" y="18.42" width="12.29" height="6.18"/><rect class="cls-1" x="59.78" y="34.56" width="16.39" height="7"/><polygon class="cls-1" points="116.41 0 126.04 0 106.19 41.66 97.44 41.66 116.41 0"/><polygon class="cls-1" points="85.49 0 94.09 0 100.64 26.52 95.39 37.82 85.49 0"/><path class="cls-2" d="M85,73.74a5.11,5.11,0,0,1-5.26,3.9c-4,0-6.14-3.2-6.14-7.14,0-3.78,2.08-7.22,6.16-7.22,3,0,4.8,1.68,5.26,4H83.89a4.05,4.05,0,0,0-4.24-3c-3.48,0-4.94,3.18-4.94,6.2s1.44,6.16,5,6.16a4.11,4.11,0,0,0,4.14-2.9Z" transform="translate(-36.57 -16.96)"/><path class="cls-2" d="M99.75,70.38c0,3.82-2,7.3-6.36,7.3-3.94,0-6.24-3.18-6.24-7.2s2.22-7.2,6.38-7.2C97.37,63.28,99.75,66.3,99.75,70.38Zm-11.44,0c0,3.22,1.78,6.26,5.14,6.26,3.62,0,5.14-3,5.14-6.28s-1.72-6.12-5.1-6.12C89.89,64.28,88.31,67.26,88.31,70.42Z" transform="translate(-36.57 -16.96)"/><path class="cls-2" d="M102.83,63.48h4.64c3.84,0,6.5,2.68,6.5,6.88s-2.6,7.12-6.52,7.12h-4.62Zm1.08,13h3.38c3.7,0,5.52-2.6,5.52-6.06,0-3.08-1.64-5.94-5.52-5.94h-3.38Z" transform="translate(-36.57 -16.96)"/><path class="cls-2" d="M125.27,70.6h-7.14v5.88H126l-.16,1h-8.74v-14h8.58v1h-7.5V69.6h7.14Z" transform="translate(-36.57 -16.96)"/></svg>